:SAMPLES-PER-SECOND 30
:FULLY-SPECIFIED
:DEGREES
343
root  -24.6265 18.5016 5.69981 56.0002 -82.3961 -64.4308
RightUpLeg  -29.4864 -6.66191 -18.6997
RightLeg  136.917 6.21618 -4.84913
RightFoot  -18.7957 1.11024 18.8588
RightToes  0.000482159 0.542163 -0.142577
Spine  31.2329 -0.486474 -4.16145
Spine1  -12.6222 -2.28571 5.87206
HEad  28.6121 -0.959487 -5.19091
LeftShoulder1  0.14401 0.153065 4.73802
LeftArm  -93.9615 -39.9208 18.8943
LeftForeArm  57.7492 -68.7346 -22.5213
LeftHand  -0.25398 0.0180481 5.50724
RightShoulder  0.827707 -17.6423 -16.2129
RightArm  -96.0817 42.921 -15.8666
RightForeArm  14.8123 61.2185 19.5647
RightHand  -12.1213 25.5521 -43.6087
LeftUpLeg  -36.4668 -4.31135 3.0316
LeftLeg  143.003 -3.88019 2.3333
LeftFoot  -26.4452 -1.72598 -14.1535
LeftToes  1.06244e-005 4.65856e-005 -8.18505e-006
344
root  -24.3975 18.3113 5.55778 52.2121 -82.2549 -60.7101
RightUpLeg  -30.1886 -7.62012 -18.5966
RightLeg  137.868 6.81548 -5.17631
RightFoot  -18.622 1.05854 18.4849
RightToes  0.000482159 0.542163 -0.142577
Spine  31.3024 -0.349945 -3.84064
Spine1  -12.4809 -2.05946 5.45758
HEad  29.8487 -2.24527 -5.00486
LeftShoulder1  0.104549 0.807589 5.2299
LeftArm  -96.0126 -39.5689 19.3471
LeftForeArm  59.2721 -69.8656 -24.013
LeftHand  -0.25398 0.0180481 5.50724
RightShoulder  0.959326 -18.3996 -16.8653
RightArm  -97.4139 43.1885 -16.4418
RightForeArm  16.8928 62.8819 20.9539
RightHand  -12.2945 25.8035 -43.8437
LeftUpLeg  -37.7018 -5.40109 3.59802
LeftLeg  143.874 -3.13819 1.74848
LeftFoot  -26.2981 -1.74132 -14.4016
LeftToes  1.06244e-005 4.65856e-005 -8.18505e-006
345
root  -24.1575 18.1151 5.43261 51.6819 -82.209 -60.3558
RightUpLeg  -31.3134 -8.08125 -18.3742
RightLeg  138.895 7.2007 -5.28677
RightFoot  -18.2045 0.958591 17.9258
RightToes  0.000482159 0.542163 -0.142577
Spine  31.5348 -0.123771 -3.38617
Spine1  -12.2187 -1.73742 5.09789
HEad  30.6062 -3.24497 -4.95548
LeftShoulder1  0.0723344 1.50374 5.53679
LeftArm  -97.8831 -38.8875 19.3388
LeftForeArm  61.9532 -71.7071 -26.9089
LeftHand  -0.25398 0.0180481 5.50724
RightShoulder  1.07863 -19.0087 -17.4391
RightArm  -98.9293 43.6041 -16.7766
RightForeArm  18.9827 64.8486 22.9147
RightHand  -12.4253 25.926 -44.1057
LeftUpLeg  -38.8178 -6.37441 4.57845
LeftLeg  144.749 -1.91582 0.87986
LeftFoot  -26.1101 -1.77315 -14.8184
LeftToes  1.06244e-005 4.65856e-005 -8.18505e-006
346
root  -23.9308 17.9392 5.33568 53.4924 -82.2181 -62.3704
RightUpLeg  -32.4005 -8.02349 -18.0813
RightLeg  139.792 7.39001 -5.25435
RightFoot  -17.952 0.916969 17.8675
RightToes  0.000482159 0.542163 -0.142577
Spine  31.6991 0.116684 -2.88226
Spine1  -11.746 -1.40052 4.95746
HEad  31.1888 -3.97 -5.08496
LeftShoulder1  0.0502045 2.13333 5.5165
LeftArm  -99.5048 -37.9786 18.8498
LeftForeArm  66.6157 -74.2948 -32.3595
LeftHand  -0.25398 0.0180481 5.50724
RightShoulder  1.18299 -19.3955 -17.9817
RightArm  -100.466 44.1862 -16.7228
RightForeArm  21.6194 67.1086 25.6308
RightHand  -12.3417 25.7504 -44.0639
LeftUpLeg  -39.7982 -6.78054 5.53992
LeftLeg  145.517 -1.10627 0.328343
LeftFoot  -25.8827 -1.78047 -15.0954
LeftToes  1.06244e-005 4.65856e-005 -8.18505e-006
347
root  -23.735 17.7997 5.26875 55.8577 -82.332 -64.8338
RightUpLeg  -33.2801 -7.76195 -17.8261
RightLeg  140.47 7.58657 -5.26696
RightFoot  -18.0704 0.959252 18.2712
RightToes  0.000482159 0.542163 -0.142577
Spine  31.6695 0.29715 -2.42474
Spine1  -11.1553 -1.11979 4.81376
HEad  31.8211 -4.64689 -5.33872
LeftShoulder1  0.0407368 2.46197 5.28974
LeftArm  -100.761 -36.9676 18.0736
LeftForeArm  75.787 -77.2929 -42.0782
LeftHand  -0.25398 0.0180481 5.50724
RightShoulder  1.2462 -19.555 -18.3381
RightArm  -101.589 44.7096 -16.3131
RightForeArm  24.9878 69.516 29.2715
RightHand  -12.1607 25.4673 -43.8468
LeftUpLeg  -40.6743 -6.42046 5.86625
LeftLeg  146.121 -1.36528 0.475294
LeftFoot  -25.6639 -1.74229 -15.0164
LeftToes  1.06244e-005 4.65856e-005 -8.18505e-006
348
root  -23.5667 17.6824 5.22491 57.866 -82.5528 -66.8977
RightUpLeg  -34.0263 -7.51603 -17.6944
RightLeg  141.033 7.88677 -5.37546
RightFoot  -18.4222 1.05957 18.9953
RightToes  0.000482159 0.542163 -0.142577
Spine  31.614 0.371469 -1.99332
Spine1  -10.5758 -0.926199 4.45428
HEad  32.5163 -5.39198 -5.73615
LeftShoulder1  0.0413007 2.49951 5.07041
LeftArm  -101.627 -36.0357 17.192
LeftForeArm  92.5238 -79.9663 -58.5194
LeftHand  -0.25398 0.0180481 5.50724
RightShoulder  1.2397 -19.5106 -18.3166
RightArm  -102.073 45.0269 -15.8078
RightForeArm  29.0687 71.8606 33.9411
RightHand  -12.1253 25.3602 -43.8711
LeftUpLeg  -41.4305 -5.7464 5.66681
LeftLeg  146.604 -2.14532 0.937876
LeftFoot  -25.4301 -1.68222 -14.7758
LeftToes  1.06244e-005 4.65856e-005 -8.18505e-006
349
root  -23.4188 17.5687 5.20124 59.4789 -82.7274 -68.6706
RightUpLeg  -34.5972 -7.31867 -17.6787
RightLeg  141.566 8.18952 -5.48463
RightFoot  -18.8267 1.187 19.9261
RightToes  0.000482159 0.542163 -0.142577
Spine  31.6843 0.3354 -1.52462
Spine1  -9.95023 -0.828638 4.11642
HEad  33.1215 -6.20843 -6.39476
LeftShoulder1  0.0463902 2.42231 4.86244
LeftArm  -102.254 -35.3052 16.3244
LeftForeArm  116.273 -81.3599 -81.8111
LeftHand  -0.25398 0.0180481 5.50724
RightShoulder  1.1742 -19.3422 -17.9472
RightArm  -102.185 45.2365 -15.6143
RightForeArm  33.7086 73.8281 39.1755
RightHand  -12.2087 25.3916 -44.1016
LeftUpLeg  -42.062 -5.30854 5.53689
LeftLeg  147.052 -2.57707 1.17527
LeftFoot  -25.0713 -1.6208 -14.6417
LeftToes  1.06244e-005 4.65856e-005 -8.18505e-006
350
root  -23.2955 17.459 5.20003 60.8002 -82.7697 -70.2482
RightUpLeg  -34.9503 -7.23328 -17.6819
RightLeg  142.011 8.46051 -5.58297
RightFoot  -19.0872 1.26536 20.4207
RightToes  0.000482159 0.542163 -0.142577
Spine  31.7566 0.237349 -1.04498
Spine1  -9.10263 -0.814904 4.12103
HEad  33.5835 -7.05873 -7.3599
LeftShoulder1  0.0529381 2.33993 4.56381
LeftArm  -102.765 -34.8055 15.5721
LeftForeArm  138.413 -81.1833 -104.172
LeftHand  -0.25398 0.0180481 5.50724
RightShoulder  1.09635 -19.1899 -17.4736
RightArm  -102.288 45.4933 -15.8864
RightForeArm  38.0268 75.1578 43.7576
RightHand  -12.1863 25.3147 -44.1297
LeftUpLeg  -42.5709 -5.07097 5.58965
LeftLeg  147.488 -2.7125 1.22922
LeftFoot  -24.6247 -1.5567 -14.5678
LeftToes  1.06244e-005 4.65856e-005 -8.18505e-006
351
root  -23.2008 17.3639 5.21593 61.879 -82.7801 -71.5783
RightUpLeg  -35.2201 -7.34698 -17.6078
RightLeg  142.295 8.87739 -5.81482
RightFoot  -19.0286 1.22306 19.9498
RightToes  0.000482159 0.542163 -0.142577
Spine  31.6709 0.137725 -0.644228
Spine1  -8.00504 -0.857643 4.38443
HEad  34.0767 -7.80734 -8.58496
LeftShoulder1  0.0575408 2.31131 4.24152
LeftArm  -103.076 -34.6057 14.982
LeftForeArm  152.42 -80.2466 -118.771
LeftHand  -0.25398 0.0180481 5.50724
RightShoulder  1.03691 -19.1279 -17.0784
RightArm  -102.407 45.8123 -16.3747
RightForeArm  40.8478 75.8382 46.5664
RightHand  -12.0228 25.1055 -43.8696
LeftUpLeg  -42.9186 -4.73651 5.48381
LeftLeg  147.859 -3.06161 1.40909
LeftFoot  -24.2791 -1.49522 -14.4042
LeftToes  1.06244e-005 4.65856e-005 -8.18505e-006
352
root  -23.1259 17.2876 5.23368 62.7564 -82.844 -72.6849
RightUpLeg  -35.4647 -7.56284 -17.4622
RightLeg  142.459 9.51733 -6.22444
RightFoot  -18.8689 1.14878 19.2575
RightToes  0.000482159 0.542163 -0.142577
Spine  31.5106 0.0587276 -0.358388
Spine1  -6.85514 -0.931555 4.6481
HEad  34.7935 -8.34156 -9.96067
LeftShoulder1  0.0577616 2.3639 4.07432
LeftArm  -103.045 -34.7831 14.5378
LeftForeArm  159.773 -79.4093 -126.291
LeftHand  -0.25398 0.0180481 5.50724
RightShoulder  0.989326 -19.0745 -16.7612
RightArm  -102.369 46.1228 -16.7474
RightForeArm  41.9734 76.0484 47.4614
RightHand  -11.8915 24.9744 -43.6093
LeftUpLeg  -43.1089 -4.37388 5.20408
LeftLeg  148.142 -3.52794 1.6573
LeftFoot  -24.0708 -1.45001 -14.2289
LeftToes  1.06244e-005 4.65856e-005 -8.18505e-006
353
root  -23.0603 17.2296 5.24501 63.5508 -82.9135 -73.7091
RightUpLeg  -35.5674 -7.70012 -17.3271
RightLeg  142.591 10.1805 -6.65197
RightFoot  -19.0734 1.19572 19.4426
RightToes  0.000482159 0.542163 -0.142577
Spine  31.4419 -0.0111264 -0.124586
Spine1  -5.86325 -1.01086 4.89382
HEad  35.6688 -8.74274 -11.42
LeftShoulder1  0.0589838 2.41471 4.06501
LeftArm  -102.728 -35.2402 14.2474
LeftForeArm  162.621 -79.0663 -128.832
LeftHand  -0.25398 0.0180481 5.50724
RightShoulder  0.946557 -18.9225 -16.5215
RightArm  -102.122 46.4125 -16.8411
RightForeArm  42.0223 75.9844 47.0382
RightHand  -11.8725 24.9989 -43.5142
LeftUpLeg  -43.2411 -4.21052 5.06857
LeftLeg  148.359 -3.67708 1.72491
LeftFoot  -23.8651 -1.42001 -14.1816
LeftToes  1.06244e-005 4.65856e-005 -8.18505e-006
